<?xml version="1.0" encoding="UTF-8" standalone="no"?>
<!DOCTYPE svg PUBLIC "-//W3C//DTD SVG 1.1//EN" "http://www.w3.org/Graphics/SVG/1.1/DTD/svg11.dtd">
<svg width="100%" height="100%" viewBox="0 0 128 128" version="1.1" xmlns="http://www.w3.org/2000/svg" xmlns:xlink="http://www.w3.org/1999/xlink" xml:space="preserve" xmlns:serif="http://www.serif.com/" style="fill-rule:evenodd;clip-rule:evenodd;stroke-linejoin:round;stroke-miterlimit:2;">
    <g transform="matrix(1.01587,0,0,1,0,0)">
        <path d="M126,16C126,7.169 118.943,0 110.25,0L15.75,0C7.057,0 0,7.169 0,16L0,112C0,120.831 7.057,128 15.75,128L110.25,128C118.943,128 126,120.831 126,112L126,16Z" style="fill:rgb(33,33,33);"/>
    </g>
    <path d="M48.892,101.871C48.891,101.082 48.427,100.366 47.706,100.045C33.995,93.835 24.446,80.024 24.446,64C24.446,48.649 33.21,35.329 46.001,28.775C46.618,28.466 47.351,28.499 47.938,28.862C48.526,29.225 48.883,29.866 48.883,30.556C48.892,39.398 48.892,64 48.892,64C48.892,72.339 55.661,79.108 64,79.108C72.339,79.108 79.108,72.339 79.108,64L79.108,30.556C79.108,29.863 79.467,29.219 80.057,28.854C80.647,28.489 81.383,28.456 82.003,28.767C94.79,35.329 103.554,48.649 103.554,64C103.554,80.024 94.005,93.835 80.295,100.047C79.575,100.368 79.111,101.083 79.111,101.871C79.108,105.77 79.108,117.322 79.108,122C79.108,122.53 78.898,123.039 78.523,123.414C78.147,123.789 77.639,124 77.108,124C71.622,124 56.378,124 50.892,124C50.361,124 49.853,123.789 49.477,123.414C49.102,123.039 48.892,122.53 48.892,122C48.892,117.322 48.892,105.77 48.892,101.871Z" style="fill:rgb(254,254,254);"/>
</svg>
